<?xml version="1.0" encoding="UTF-8"?>
<svg version="1.1" xmlns="http://www.w3.org/2000/svg" width="946" height="789">
<path d="M0 0 C2.7208721 0.00461384 5.44129522 -0.00224457 8.16210938 -0.02050781 C32.16097783 -0.17978216 55.90803074 1.20423377 79.47485352 6.00317383 C80.75013916 6.25808594 82.0254248 6.51299805 83.33935547 6.77563477 C116.33395211 13.50804281 147.85847388 24.43078821 178.03735352 39.31567383 C179.03637695 39.80825684 180.03540039 40.30083984 181.06469727 40.80834961 C251.85180598 76.05074884 251.85180598 76.05074884 261.78735352 104.46020508 C265.14276981 117.01971467 263.38822921 129.91546828 257.45922852 141.36254883 C250.45710074 153.03276179 240.7147069 159.26615802 227.47485352 162.69067383 C213.05743702 165.24732721 200.46318997 161.674351 188.03735352 154.31567383 C185.12266875 152.23493569 182.30143135 150.05626601 179.47094727 147.86254883 C137.32194345 115.93338996 84.16128337 98.63400976 32.03735352 93.31567383 C30.76891602 93.18418945 29.50047852 93.05270508 28.19360352 92.91723633 C-47.88340935 86.57748526 -122.45285219 110.71626759 -182.96264648 156.31567383 C-183.84952148 156.96922852 -184.73639648 157.6227832 -185.65014648 158.29614258 C-191.56485495 162.7427359 -196.94201757 167.77314109 -202.3449707 172.81567383 C-204.00987015 174.35946227 -205.68918606 175.88608325 -207.37280273 177.40942383 C-213.27346165 182.76100771 -218.92486414 188.12874358 -223.96264648 194.31567383 C-224.92446187 195.4657683 -225.88674918 196.61546817 -226.84936523 197.76489258 C-265.66860192 244.46159959 -289.96177213 300.99672179 -296.96264648 361.31567383 C-297.05835938 362.10264648 -297.15407227 362.88961914 -297.25268555 363.70043945 C-299.91130168 388.45701549 -298.98351867 414.79427744 -294.96264648 439.31567383 C-294.77992188 440.44344238 -294.59719727 441.57121094 -294.40893555 442.7331543 C-286.29226401 490.72014261 -265.96294737 536.99735975 -235.96264648 575.31567383 C-235.29620117 576.17547852 -234.62975586 577.0352832 -233.94311523 577.92114258 C-229.92923901 583.02755315 -225.7185998 587.90746775 -221.33374023 592.69848633 C-220.00983644 594.15979694 -218.69405012 595.62897287 -217.41064453 597.12597656 C-213.15630722 602.08383923 -208.66871757 606.6648001 -203.90014648 611.12817383 C-202.79413086 612.16530518 -202.79413086 612.16530518 -201.66577148 613.22338867 C-193.14474422 621.12293826 -184.18563281 628.45859546 -174.39624023 634.74536133 C-171.88782451 636.36395382 -169.42734812 638.04652343 -166.96289062 639.73095703 C-100.51473304 684.81120038 -18.96316495 701.9089994 60.03735352 687.50317383 C105.51347744 678.73954578 144.94684756 660.12896023 183.03735352 634.31567383 C198.16609061 624.06832084 198.16609061 624.06832084 206.03735352 622.31567383 C207.21104492 622.0469043 207.21104492 622.0469043 208.40844727 621.77270508 C221.99760131 619.41025185 234.34292142 622.74524004 245.60375977 630.47583008 C254.958922 637.54851292 260.96756976 646.61129746 263.03735352 658.31567383 C263.3115707 661.11493305 263.37235817 663.87919949 263.34985352 666.69067383 C263.34139404 667.80647827 263.34139404 667.80647827 263.33276367 668.94482422 C263.07517818 680.6547625 258.74886953 690.47750609 250.78735352 699.12817383 C198.46054899 748.56454535 119.79986472 774.19860742 50.03735352 783.31567383 C49.03591309 783.44844727 48.03447266 783.5812207 47.00268555 783.71801758 C15.54349506 787.66079942 -17.596747 786.57303155 -48.96264648 782.31567383 C-50.00114746 782.17645508 -51.03964844 782.03723633 -52.10961914 781.89379883 C-59.10622169 780.91925996 -66.03594713 779.6994954 -72.96264648 778.31567383 C-74.6281958 777.9840625 -74.6281958 777.9840625 -76.32739258 777.64575195 C-106.63264233 771.44437269 -136.0668382 761.69727209 -163.96264648 748.31567383 C-164.97214355 747.83630371 -165.98164063 747.35693359 -167.02172852 746.86303711 C-200.15854833 731.03813166 -230.49995609 710.68195642 -257.96264648 686.31567383 C-258.92041992 685.47004883 -259.87819336 684.62442383 -260.86499023 683.75317383 C-267.18772707 678.063578 -273.2487284 672.12887985 -279.27514648 666.12817383 C-280.02828125 665.37971191 -280.78141602 664.63125 -281.55737305 663.86010742 C-286.23006816 659.17396719 -290.66823297 654.34961071 -294.96264648 649.31567383 C-295.42388916 648.78143799 -295.88513184 648.24720215 -296.36035156 647.69677734 C-299.60208013 643.93729374 -302.79162398 640.13479644 -305.96264648 636.31567383 C-306.40624512 635.78232422 -306.84984375 635.24897461 -307.30688477 634.69946289 C-358.05990285 573.19320795 -389.8628282 488.19946618 -390.16577148 408.44067383 C-390.17147156 407.23668945 -390.17717163 406.03270508 -390.18304443 404.79223633 C-390.19243824 402.25090394 -390.19900587 399.70955968 -390.20288086 397.16821289 C-390.21248039 393.38119631 -390.24351495 389.59474859 -390.27514648 385.80786133 C-390.37307613 363.48435741 -388.66294124 341.39061017 -384.15014648 319.50317383 C-383.76113159 317.56812988 -383.76113159 317.56812988 -383.36425781 315.59399414 C-371.29114789 256.28156355 -346.43628788 197.49755099 -307.26928711 150.87817383 C-305.23684412 148.44774873 -303.2626343 145.97040008 -301.27514648 143.50317383 C-296.99464149 138.29279253 -292.51534433 133.28838993 -287.96264648 128.31567383 C-286.68067383 126.89448242 -286.68067383 126.89448242 -285.37280273 125.44458008 C-276.41625552 115.53969258 -267.18098146 105.93332245 -256.96264648 97.31567383 C-256.07963867 96.54352539 -255.19663086 95.77137695 -254.28686523 94.97583008 C-240.091561 82.63410455 -224.87734756 71.34287813 -208.96264648 61.31567383 C-207.89820313 60.6425415 -207.89820313 60.6425415 -206.81225586 59.95581055 C-162.29422968 32.02199317 -113.49036837 13.51674205 -61.77514648 4.44067383 C-60.69209229 4.24965088 -59.60903809 4.05862793 -58.49316406 3.86181641 C-39.03448106 0.6495385 -19.69387975 -0.03608894 0 0 Z " fill="#007BFC" transform="translate(396.962646484375,0.684326171875)"/>
<path d="M0 0 C0.886875 0.598125 1.77375 1.19625 2.6875 1.8125 C11.64774184 10.28840444 16.97841345 21.7873971 18 34 C18.24060039 46.36418652 15.61451217 57.0780599 8 67 C7.60554688 67.54914063 7.21109375 68.09828125 6.8046875 68.6640625 C0.11325679 77.34380405 -10.33553534 82.95193804 -21 85 C-36.1212026 86.59962722 -46.35906513 83.08337632 -59.4375 75.75 C-97.3014698 54.51932053 -141.69383625 48.36084275 -183.74560547 59.74316406 C-216.15264301 69.22843452 -246.49317833 87.80224005 -267 115 C-267.40460449 115.53496094 -267.80920898 116.06992187 -268.22607422 116.62109375 C-294.22841647 151.25089519 -306.13483744 193.10888499 -300.41845703 236.25195312 C-295.25287023 270.17484986 -279.92896184 300.51696668 -256 325 C-255.14019531 325.92167969 -254.28039062 326.84335937 -253.39453125 327.79296875 C-232.74536047 349.41817123 -204.84447279 363.08215293 -176 370 C-175.32340332 370.16371094 -174.64680664 370.32742188 -173.94970703 370.49609375 C-138.9391229 378.48719147 -100.97768207 372.52162122 -69 357 C-68.37818848 356.70399902 -67.75637695 356.40799805 -67.11572266 356.10302734 C-52.47557593 349.05519598 -39.71289025 339.21148228 -28 328 C-27.2059375 327.26910156 -26.411875 326.53820312 -25.59375 325.78515625 C-8.45798811 309.48991433 3.38696361 288.74884686 11.59423828 266.76538086 C11.85907013 266.056754 12.12390198 265.34812714 12.39675903 264.61802673 C12.59582855 264.08407791 12.79489807 263.55012909 13 263 C11.71923442 262.99780016 11.71923442 262.99780016 10.4125948 262.99555588 C-10.40499523 262.95843412 -31.22242314 262.89934835 -52.03988171 262.81609726 C-62.10723815 262.77636139 -72.17451705 262.74394125 -82.24194336 262.72900391 C-91.02115573 262.71595908 -99.80019707 262.6889224 -108.5793131 262.64538693 C-113.22379042 262.62283564 -117.8680573 262.6070855 -122.51259422 262.60811615 C-126.89331013 262.60886652 -131.27356194 262.59076565 -135.65415764 262.55883217 C-137.25317006 262.55038444 -138.85223485 262.54854797 -140.45125961 262.55419731 C-156.36990029 262.60290226 -170.46727273 259.39564535 -182.3125 248.125 C-192.06381972 237.72620835 -195.63886244 226.11550126 -195.47021484 212.00854492 C-194.988076 199.09263838 -189.8331854 187.28353907 -180.4375 178.25 C-163.93225546 165.07754522 -145.39799943 165.69822403 -125.35229492 165.74121094 C-123.20869834 165.73849545 -121.0651027 165.7349314 -118.92150879 165.73059082 C-113.14296068 165.7215337 -107.3644846 165.72498259 -101.58593535 165.73134899 C-95.51947201 165.73644047 -89.45301451 165.73170914 -83.3865509 165.72857666 C-73.20796611 165.72494754 -63.02941044 165.72970983 -52.85083008 165.73925781 C-41.09857011 165.75015495 -29.34637947 165.74660338 -17.59412116 165.735605 C-7.47909045 165.7265195 2.63591943 165.7252526 12.7509529 165.73048234 C18.78173725 165.7335932 24.81248903 165.7340354 30.84327126 165.72740936 C36.5093497 165.72161763 42.17533893 165.72566624 47.84140778 165.73719788 C49.91580495 165.73983405 51.99020968 165.73909725 54.06460381 165.73467255 C56.9046043 165.72917477 59.74432213 165.73610208 62.58430481 165.74603271 C63.39706228 165.74157127 64.20981974 165.73710983 65.04720622 165.73251319 C79.97779189 165.83318289 92.08798861 170.54454657 102.90625 180.80859375 C112.57594341 191.00842386 116.15352133 203.29782932 116.1171875 217.12890625 C116.05423721 219.27403299 115.97280174 221.41867951 115.875 223.5625 C115.82496826 224.72434814 115.77493652 225.88619629 115.72338867 227.08325195 C112.23449264 294.32255958 81.8875914 357.40180299 32.625 403.125 C26.31693793 408.71808804 19.72084193 413.91595465 13 419 C12.44473633 419.4228125 11.88947266 419.845625 11.31738281 420.28125 C-40.09008562 459.14808969 -109.53661942 475.95730603 -173.25097656 467.40673828 C-189.33622265 465.02680756 -205.09335763 461.58191009 -220.61523438 456.73974609 C-222.87770123 456.03793666 -225.14789025 455.37036178 -227.421875 454.70703125 C-254.09287998 446.66244048 -278.23187906 432.11361158 -300 415 C-300.95003906 414.26394531 -301.90007812 413.52789063 -302.87890625 412.76953125 C-348.4835482 376.54408541 -381.10526984 322.96375363 -393 266 C-393.15162598 265.28424805 -393.30325195 264.56849609 -393.45947266 263.83105469 C-406.95919619 198.04452317 -392.15516651 128.08582794 -356 72 C-341.14106028 49.94441096 -323.11413096 29.26066308 -302 13 C-301.06800781 12.23945313 -300.13601563 11.47890625 -299.17578125 10.6953125 C-225.51262685 -48.34839384 -122.54914812 -53.76787601 0 0 Z " fill="#002BB6" transform="translate(542,179)"/>
<path d="M0 0 C1.03125 0.721875 2.0625 1.44375 3.125 2.1875 C50.64217252 44.13726539 64.85826327 157.02250851 69 217 C69.12918823 218.75691162 69.12918823 218.75691162 69.26098633 220.54931641 C70.10707674 232.77944193 70.20048077 244.9943523 70.1875 257.25 C70.18689575 258.30758514 70.1862915 259.36517029 70.18566895 260.45480347 C70.15949526 277.379759 69.76783693 294.15326788 68 311 C67.87641113 312.19625 67.75282227 313.3925 67.62548828 314.625 C61.17439428 374.67882054 44.79944281 434.09801343 18.75 488.625 C18.18361816 489.81665771 17.61723633 491.00831543 17.03369141 492.23608398 C9.33435212 507.99963354 0.81790449 518.8781634 -15.9296875 525.0859375 C-28.12494888 528.71658783 -40.81142782 526.99217809 -52 521.125 C-63.9565956 513.9580348 -70.45338487 504.3063234 -74.58203125 491.14453125 C-75.17464931 488.10390212 -75.25075893 485.15930217 -75.3125 482.0625 C-75.34988281 480.85722656 -75.38726563 479.65195312 -75.42578125 478.41015625 C-74.91715325 468.14422488 -70.08826987 458.61076866 -65.5 449.625 C-26.32606188 370.19921976 -13.25914819 276.36593148 -30 175 C-30.20463867 173.97438965 -30.40927734 172.9487793 -30.62011719 171.89208984 C-38.48422961 133.08287138 -50.57736718 94.49448425 -68.9375 59.3125 C-75.27190204 46.88272997 -76.85778059 34.53476203 -73.09765625 21.05078125 C-68.70191625 8.83343983 -61.35203448 0.60541101 -49.9375 -5.375 C-32.97995582 -13.22452989 -14.94220326 -11.56423063 0 0 Z " fill="#50C0FE" transform="translate(872,135)"/>
<path d="M0 0 C32.54225656 26.10875862 42.43334595 99.52304602 46.84887695 137.41455078 C47.24100794 141.10804755 47.55482328 144.80531656 47.84765625 148.5078125 C47.95851563 149.76464844 48.069375 151.02148438 48.18359375 152.31640625 C52.73181826 213.34866218 47.12035619 309.1199006 5.41015625 358.3203125 C-4.69277515 368.44087554 -16.77151283 372.79572931 -30.84985352 372.82470703 C-44.12751909 372.58091446 -55.11917599 366.40984569 -64.2265625 356.9921875 C-73.89558119 344.51856501 -75.01941405 331.73292467 -74.15234375 316.5078125 C-73.29566241 310.77966357 -70.91298992 305.99474659 -68.4140625 300.8125 C-64.69141066 292.76573213 -61.8581625 284.48510603 -59.08984375 276.0703125 C-58.8277713 275.27889862 -58.56569885 274.48748474 -58.29568481 273.67208862 C-51.87773739 254.22320622 -47.50749012 234.8667897 -45.15234375 214.5078125 C-45.05663086 213.74331787 -44.96091797 212.97882324 -44.86230469 212.19116211 C-43.77764653 202.31746838 -43.90847421 192.36585631 -43.90234375 182.4453125 C-43.90166901 181.46494019 -43.90099426 180.48456787 -43.90029907 179.4744873 C-43.91724062 163.95603325 -44.49890816 148.83297004 -47.15234375 133.5078125 C-47.40177734 132.03538086 -47.40177734 132.03538086 -47.65625 130.53320312 C-52.36600156 103.65273221 -61.41645904 77.77607518 -72.2421875 52.78515625 C-76.32122311 42.57881392 -75.53026042 28.26870474 -71.546875 18.21875 C-64.69636201 4.90150627 -54.9084595 -3.51027733 -40.73046875 -8.3125 C-26.52628875 -11.88872972 -11.90524755 -8.25372879 0 0 Z " fill="#50C0FD" transform="translate(747.15234375,211.4921875)"/>
<path d="M0 0 C0.66 0 1.32 0 2 0 C0.44499019 3.81684226 -2.03595495 6.19195732 -5 9 C-5.66 8.67 -6.32 8.34 -7 8 C-5.88200014 6.66079162 -4.75538103 5.32877444 -3.625 4 C-2.68527344 2.88625 -2.68527344 2.88625 -1.7265625 1.75 C-1.15679687 1.1725 -0.58703125 0.595 0 0 Z " fill="#002394" transform="translate(362,357)"/>
</svg>
